<?xml version="1.0" standalone="no"?><!DOCTYPE svg PUBLIC "-//W3C//DTD SVG 1.1//EN" "http://www.w3.org/Graphics/SVG/1.1/DTD/svg11.dtd"><svg t="1686138565927" class="icon" viewBox="0 0 1024 1024" version="1.1" xmlns="http://www.w3.org/2000/svg" p-id="20609" xmlns:xlink="http://www.w3.org/1999/xlink" width="200" height="200"><path d="M212 699.6h337.6v75h75v-75c0-41.4-33.6-75-75-75H212c-41.4 0-75 33.6-75 75V812c0 41.4 33.6 75 75 75h150V812h-150v-112.4z" p-id="20610"></path><path d="M812 624.6h-150v75h150V812H474.6v-75h-75V812c0 41.4 33.6 75 75 75H812c41.4 0 75-33.6 75-75v-112.6c0-41.2-33.6-74.8-75-74.8zM774.6 174.6H520.8l-75-37.6h-196.2v412.6h525z" p-id="20611"></path></svg>