<?xml version="1.0" standalone="no"?><!DOCTYPE svg PUBLIC "-//W3C//DTD SVG 1.1//EN" "http://www.w3.org/Graphics/SVG/1.1/DTD/svg11.dtd"><svg t="1686129583720" class="icon" viewBox="0 0 1024 1024" version="1.1" xmlns="http://www.w3.org/2000/svg" p-id="7589" xmlns:xlink="http://www.w3.org/1999/xlink" width="200" height="200"><path d="M744.5 375.7C695.9 460.2 596.7 543 531.8 576c-65-33-164.2-115.8-212.8-200.3h91.3c4.5 0 8.6-1.7 11.7-4.5l42.5-32.9 50.7 99.6c4.4 8.6 14.9 12 23.5 7.7 4.7-2.4 7.9-6.7 9-11.5l47.2-141.8 41.1 74.4c3.2 5.8 9.1 9.1 15.3 9.1h93.2v-0.1zM531.8 181.8c-87.9-90.1-241.6-27.7-241.6 102.7 0 18.1 4.3 37.1 11.9 56.4h102.4L460 298c7.6-5.9 18.5-4.5 24.4 3.1 0.7 0.9 1.3 1.8 1.7 2.7l41.4 81.2 47.1-141.4c3-9.1 12.9-14.1 22-11.1 4.3 1.4 7.7 4.4 9.8 8.2l55.3 100.2h99.9c7.6-19.2 11.9-38.3 11.9-56.4-0.1-130.4-153.9-192.8-241.7-102.7zM614.9 708.6c28.5 8.2 56.1 27.3 50.2 61.5-3.9 22.7-21.2 41.8-45.2 42.4-92.9 2.2-130.9 6.3-189.5-20.5-26-11.9-41.2-36.1-51.9-62 101.4 63.9 123.2 56.4 239.9 53.6 7.9-0.2 18.4-6.3 18.4-18.3 0.1-27.9-21.1-32.9-60.5-40.2-33.9-6.2-62.6-4.9-87.9-27.7-86-77.4-164.7-90.6-265.3-44-28.7 13.3-56.3 30.3-83.8 45.9V841c37.8-12.6 80.3-28.5 118.2-37.9 16.6-4.1 31.6 0.5 46.7 8.5 99.8 53.1 104.9 52.6 217.5 71.6 14.9 2.5 28 2.1 42.4-2.4 141.6-43.7 153.6-48.5 296.7-138.2 46.7-29.3 18.2-76.8-31.6-56.5-8.7 3.5-17.4 7-26 10.5 4.8-16.2-18.7-27.4-42.1-18.7-5.2 2-10.9 4.5-17.2 7.5 1.9-17.5-21.8-28.4-55.1-14.9-7.9 3.3-57.1 30.6-73.9 38.1z" fill="#d81e06" p-id="7590"></path></svg>