<?xml version="1.0" standalone="no"?><!DOCTYPE svg PUBLIC "-//W3C//DTD SVG 1.1//EN" "http://www.w3.org/Graphics/SVG/1.1/DTD/svg11.dtd"><svg t="1686221616915" class="icon" viewBox="0 0 1024 1024" version="1.1" xmlns="http://www.w3.org/2000/svg" p-id="7028" xmlns:xlink="http://www.w3.org/1999/xlink" width="200" height="200"><path d="M729.984 939.136H260.992c-106.496 0-192.768-86.272-192.768-192.768V277.248C68.096 170.752 154.496 84.48 260.992 84.48h468.992c106.496 0 192.768 86.272 192.768 192.768V746.24c0 106.496-86.272 192.896-192.768 192.896z" fill="#CECED3" p-id="7029"></path><path d="M612.224 337.664l-11.776-18.56c-10.112-16-27.776-25.728-46.848-25.728h-120.448c-16.384 0-31.616 8.576-40.192 22.528l-12.672 20.992c-8.832 14.592-24.704 23.552-41.856 23.552h-97.536c-22.016 0-39.936 17.792-39.936 39.936v289.92c0 22.016 17.792 39.936 39.936 39.936h509.056c22.016 0 39.936-17.792 39.936-39.936V400.384c0-22.016-17.792-39.936-39.936-39.936h-96.384c-16.768 0-32.384-8.576-41.344-22.784z" fill="#2A2A2B" p-id="7030"></path><path d="M310.528 324.352h-28.8c-7.936 0-14.464 6.4-14.464 14.464v8.832h57.6v-8.832c0.128-8.064-6.4-14.464-14.336-14.464z" fill="#2A2A2B" p-id="7031"></path><path d="M643.712 425.728m-18.688 0a18.688 18.688 0 1 0 37.376 0 18.688 18.688 0 1 0-37.376 0Z" fill="#FFC933" p-id="7032"></path><path d="M495.488 665.344c-67.84 0-123.008-55.168-123.008-123.008s55.168-123.008 123.008-123.008 123.008 55.168 123.008 123.008-55.296 123.008-123.008 123.008z m0-228.096c-57.984 0-105.088 47.104-105.088 105.088s47.104 105.088 105.088 105.088 105.088-47.104 105.088-105.088-47.232-105.088-105.088-105.088z" fill="#D7D7DC" p-id="7033"></path></svg>