<?xml version="1.0" standalone="no"?><!DOCTYPE svg PUBLIC "-//W3C//DTD SVG 1.1//EN" "http://www.w3.org/Graphics/SVG/1.1/DTD/svg11.dtd"><svg t="1686138615348" class="icon" viewBox="0 0 1024 1024" version="1.1" xmlns="http://www.w3.org/2000/svg" p-id="21894" xmlns:xlink="http://www.w3.org/1999/xlink" width="200" height="200"><path d="M743.207337 207.830419c-37.337373-1.143033-69.02098 31.842219-69.688175 68.623937-0.665149 37.765115 31.206746 70.52831 68.860321 70.767763 38.288025 0.222057 71.624271-31.558763 70.51296-69.116147C811.655266 235.910964 781.84431 209.019501 743.207337 207.830419zM743.142869 304.598346c-13.748119 0-25.493627-11.793604-25.875321-26.031886-0.475837-15.032368 11.208273-27.145244 26.003234-27.099195 14.44499 0.032746 25.52535 10.985192 25.810852 25.541723C769.367137 292.374954 757.905084 304.566624 743.142869 304.598346z" fill="#272636" p-id="21895"></path><path d="M947.664939 282.136775C910.517901 245.118674 802.226522 133.920082 786.162662 114.41075c-13.939477-16.780175-28.861328-36.350906-50.322106-43.558052-28.859281-9.634428-48.004317 19.349697-66.353221 35.971259C644.468522 129.473817 162.847413 595.98274 76.110957 679.831426c-6.668886 6.443759-26.321482 28.683273-1.589195 53.432956 66.832128 66.797335 130.866536 136.056746 196.618053 203.982788 22.858614 23.699772 34.256198 23.589254 58.035788 0.665149 117.66077-113.51638 576.551178-557.721321 595.629699-575.291488C949.603081 339.712075 979.82643 314.155003 947.664939 282.136775zM867.152231 338.41043c-45.36828 44.192501-90.961688 88.166015-136.517233 132.168182C597.925487 598.637196 465.153554 726.658941 332.413344 854.654081c-23.809265 22.984481-39.145555 22.890336-61.782112-0.493234-37.810141-38.987966-75.590606-78.005608-113.119337-117.260657-16.920368-17.749246-18.159592-31.591509-6.28617-48.369637 18.542308 17.776875 37.210483 35.763528 56.037271 53.526077 13.811564 13.080923 33.177634 11.192923 36.892235-4.65195 1.77646-7.697309-1.651616-19.206434-6.984065-25.476231-16.22452-19.427468-34.511002-37.129642-52.702316-56.242955 4.095271-4.474918 53.494355-52.366671 55.717999-54.701856 18.85851 17.954931 37.46324 35.112706 55.432497 52.830229 8.445346 8.334829 17.303085 12.840446 28.764114 7.824199 13.557784-5.9055 16.064884-22.635533 4.476965-35.477003-17.460674-19.224854-35.845393-37.668924-55.051827-57.732889l41.463344-42.165332c0 0 94.386694 88.151689 98.484012 92.039229 12.539594 11.907191 25.430182 13.493316 34.158984 3.016707 9.588379-11.479449 6.92062-22.812565-3.047406-33.162284-26.001187-26.857694-51.875484-53.812603-77.656661-80.700997-4.316306-4.445242-8.53949-8.969279-13.524015-14.255679 4.031826-4.445242 20.572548-21.400403 22.382776-23.414269 18.635429 16.906042 35.114752 35.271318 53.084009 52.193733 13.586436 12.856819 25.524327 15.364943 35.367509 6.188956 10.128685-9.41237 9.015328-23.49204-4.76349-36.795021-17.07898-16.526395-35.240619-33.081443-53.844326-49.782823 3.745301-4.061502 56.987922-56.542784 57.780984-57.320497 20.572548 18.905582 39.401382 35.954887 57.908898 53.336766 10.288321 9.602705 20.892843 13.700023 32.766264 3.477194 10.667967-9.145287 10.730389-21.493523-1.873674-33.908274-18.129916-17.827017-37.588083-34.288944-57.335846-52.130288 8.506744-8.032954 18.222013-17.47807 19.589151-18.796088 19.23918 17.572214 38.129412 33.862225 56.287981 50.828642 13.93743 13.033851 25.305339 14.46341 35.430954 3.889587 8.826016-9.190313 7.81192-22.778796-4.412496-34.350342-18.096147-17.032932-37.589107-32.589233-56.44864-49.210795 137.02684-137.040143 156.423609-192.743816 201.475687-147.676387 41.970904 41.970904 82.799798 85.133959 123.756605 128.169101C886.233821 304.042691 884.708072 321.379545 867.152231 338.41043z" fill="#272636" p-id="21896"></path></svg>