<?xml version="1.0" standalone="no"?><!DOCTYPE svg PUBLIC "-//W3C//DTD SVG 1.1//EN" "http://www.w3.org/Graphics/SVG/1.1/DTD/svg11.dtd"><svg t="1686065042915" class="icon" viewBox="0 0 1024 1024" version="1.1" xmlns="http://www.w3.org/2000/svg" p-id="5226" xmlns:xlink="http://www.w3.org/1999/xlink" width="200" height="200"><path d="M863.232 1024H194.1504c-23.1424 0-41.984-18.8416-41.984-41.984V312.9344c0-23.1424 18.8416-41.984 41.984-41.984h669.0816c23.1424 0 41.984 18.8416 41.984 41.984v669.0816c0 23.1424-18.8416 41.984-41.984 41.984z" fill="#B5DAF4" p-id="5227"></path><path d="M525.5168 139.0592s-57.5488-138.24-135.9872-96.256c0 0-2.048 0.8192-5.5296 2.4576-54.6816 26.624-61.6448 101.7856-13.7216 139.264 30.72 23.9616 80.4864 52.6336 132.096 39.1168l5.5296-1.2288c10.24-1.8432 48.128-12.6976 17.6128-83.3536z" fill="#A1E4FF" p-id="5228"></path><path d="M543.3344 132.3008s57.5488-138.24 135.9872-96.256c0 0 2.048 0.8192 5.5296 2.4576 54.6816 26.624 61.6448 101.7856 13.7216 139.264-30.72 23.9616-80.4864 52.6336-132.096 39.1168l-5.5296-1.2288c-10.24-1.6384-48.128-12.6976-17.6128-83.3536z" fill="#A1E4FF" p-id="5229"></path><path d="M564.0192 240.0256h-46.4896c-13.5168 0-24.576-11.0592-24.576-24.576V168.96c0-13.5168 11.0592-24.576 24.576-24.576h46.4896c13.5168 0 24.576 11.0592 24.576 24.576v46.4896c0 13.5168-11.0592 24.576-24.576 24.576z" fill="#8FD1F2" p-id="5230"></path><path d="M912.5888 429.4656H143.1552c-23.1424 0-41.984-18.8416-41.984-41.984v-139.8784c0-23.1424 18.8416-41.984 41.984-41.984h769.2288c23.1424 0 41.984 18.8416 41.984 41.984v139.8784c0.2048 23.1424-18.6368 41.984-41.7792 41.984z" fill="#8FCFEF" p-id="5231"></path><path d="M896 429.4656H161.792c-23.1424 0-41.984-18.8416-41.984-41.984v-139.8784c0-23.1424 18.8416-41.984 41.984-41.984h734.4128c23.1424 0 41.984 18.8416 41.984 41.984v139.8784c-0.2048 23.1424-19.0464 41.984-42.1888 41.984z" fill="#A9D9F7" p-id="5232"></path><path d="M478.6176 429.4656h90.9312V1024h-90.9312zM448.3072 429.4656h11.6736V1024h-11.6736zM589.0048 429.4656h11.6736V1024h-11.6736z" fill="#FFFFFF" p-id="5233"></path></svg>