<?xml version="1.0" standalone="no"?><!DOCTYPE svg PUBLIC "-//W3C//DTD SVG 1.1//EN" "http://www.w3.org/Graphics/SVG/1.1/DTD/svg11.dtd"><svg t="1686138524249" class="icon" viewBox="0 0 1024 1024" version="1.1" xmlns="http://www.w3.org/2000/svg" p-id="18565" xmlns:xlink="http://www.w3.org/1999/xlink" width="200" height="200"><path d="M183.72 699.01h-67.13c-16.57 0-30-13.44-30-30V448.32c0-16.57 13.43-30 30-30h67.13c60.65 0 110 49.35 110 110v60.69c0 60.65-49.34 110-110 110z m-37.13-60h37.13c27.57 0 50-22.42 50-50v-60.69c0-27.57-22.43-50-50-50h-37.13v160.69zM907.41 717.39h-67.13c-60.64 0-110-49.36-110-110v-60.68c0-60.65 49.36-110 110-110h67.13c16.56 0 30 13.43 30 30v220.68c0 16.56-13.44 30-30 30z m-67.13-220.68c-27.58 0-50 22.43-50 50v60.68c0 27.58 22.42 50 50 50h37.13V496.71h-37.13zM512 942c-41.89 0-75.98-34.08-75.98-75.98s34.08-75.98 75.98-75.98 75.98 34.08 75.98 75.98S553.89 942 512 942z m0-91.95c-8.81 0-15.98 7.17-15.98 15.98S503.19 882 512 882s15.98-7.17 15.98-15.98-7.18-15.97-15.98-15.97z" p-id="18566" fill="#2c2c2c"></path><path d="M907.41 509.81c-16.56 0-30-13.43-30-30C877.41 293.54 713.48 142 512 142S146.6 293.54 146.6 479.81c0 16.57-13.43 30-30 30s-30-13.43-30-30C86.59 260.46 277.43 82 512 82s425.41 178.46 425.41 397.81c0 16.57-13.44 30-30 30zM583.42 897.33c-14.43 0-25.21-0.74-30.94-1.82-16.29-3.03-27.03-18.69-24-34.98s18.65-27.11 34.98-24c21.13 3.95 182.58-0.61 266.5-70.37 31.91-26.52 47.44-58.3 47.44-97.15 0-16.56 13.44-30 30-30s30 13.44 30 30c0 56.97-23.24 105.2-69.08 143.3-84.25 70.02-220.7 85.02-284.9 85.02z" p-id="18567" fill="#2c2c2c"></path></svg>