<?xml version="1.0" standalone="no"?><!DOCTYPE svg PUBLIC "-//W3C//DTD SVG 1.1//EN" "http://www.w3.org/Graphics/SVG/1.1/DTD/svg11.dtd"><svg t="1686133376772" class="icon" viewBox="0 0 1024 1024" version="1.1" xmlns="http://www.w3.org/2000/svg" p-id="13052" xmlns:xlink="http://www.w3.org/1999/xlink" width="200" height="200"><path d="M320 192a128 128 0 0 0 128 128h128a128 128 0 0 0 128-128h64a128 128 0 0 1 128 128v448a128 128 0 0 1-128 128H256a128 128 0 0 1-128-128V320a128 128 0 0 1 128-128h64z m0 0h384-384z m224 256a32 32 0 0 0 0 64h192a32 32 0 0 0 0-64h-192z m0 192a32 32 0 0 0 0 64h192a32 32 0 0 0 0-64h-192zM333.248 461.248l-22.592-22.592a32 32 0 1 0-45.312 45.248l45.312 45.248a31.872 31.872 0 0 0 45.248 0l90.496-90.496a32 32 0 1 0-45.248-45.312l-67.84 67.904z m0 192l-22.592-22.592a32 32 0 1 0-45.312 45.248l45.312 45.248a31.872 31.872 0 0 0 45.248 0l90.496-90.496a32 32 0 1 0-45.248-45.312l-67.84 67.904zM448 128h128a64 64 0 1 1 0 128H448a64 64 0 1 1 0-128z" fill="#1296db" p-id="13053"></path></svg>