<?xml version="1.0" standalone="no"?><!DOCTYPE svg PUBLIC "-//W3C//DTD SVG 1.1//EN" "http://www.w3.org/Graphics/SVG/1.1/DTD/svg11.dtd"><svg t="1686280788619" class="icon" viewBox="0 0 1024 1024" version="1.1" xmlns="http://www.w3.org/2000/svg" p-id="10239" xmlns:xlink="http://www.w3.org/1999/xlink" width="200" height="200"><path d="M639.509333 530.197333l122.389334 211.968a42.56 42.56 0 0 1-15.616 58.282667 42.602667 42.602667 0 0 1-58.282667-15.616l-138.666667-240.170667c-2.090667-3.626667-3.626667-7.466667-4.544-11.328H384v234.858667A42.453333 42.453333 0 0 1 341.333333 810.666667c-23.573333 0-42.666667-19.2-42.666666-42.474667V213.333333h309.12c88.490667 0 160.213333 71.808 160.213333 160 0 77.504-55.253333 142.144-128.490667 156.864zM512 1024C229.226667 1024 0 794.773333 0 512S229.226667 0 512 0s512 229.226667 512 512-229.226667 512-512 512z m0-85.333333c235.648 0 426.666667-191.018667 426.666667-426.666667S747.648 85.333333 512 85.333333 85.333333 276.352 85.333333 512s191.018667 426.666667 426.666667 426.666667z m-128-640v149.333333h224.064a74.666667 74.666667 0 0 0 0-149.333333H384z" fill="#2c2c2c" p-id="10240"></path></svg>