<?xml version="1.0" standalone="no"?><!DOCTYPE svg PUBLIC "-//W3C//DTD SVG 1.1//EN" "http://www.w3.org/Graphics/SVG/1.1/DTD/svg11.dtd"><svg t="1686138598331" class="icon" viewBox="0 0 1024 1024" version="1.1" xmlns="http://www.w3.org/2000/svg" p-id="21612" xmlns:xlink="http://www.w3.org/1999/xlink" width="200" height="200"><path d="M857.9584 237.0048a218.0608 218.0608 0 0 0-307.968 0l-37.888 37.9392-37.9904-37.9392a216.2688 216.2688 0 0 0-153.9584-63.744 216.1664 216.1664 0 0 0-153.9072 63.744C125.0304 278.1696 102.4 332.8512 102.4 391.0144s22.6304 112.8448 63.7952 153.9584l56.2688 56.2688 221.1328 221.1328c18.2784 18.2784 42.5472 28.3648 68.4032 28.3648 25.8048 0 50.176-10.0352 68.4032-28.3648l277.4528-277.4528a217.9584 217.9584 0 0 0 0.1024-307.9168zM202.9056 508.2112a164.864 164.864 0 0 1-48.5888-117.248c0-44.288 17.3056-85.9136 48.5888-117.248 62.6176-62.6176 171.8272-62.6176 234.496 0l35.84 35.7888-85.9648 86.8352a108.4416 108.4416 0 0 0 76.5952 184.9856c27.8016 0 55.6032-10.5984 76.7488-31.744l85.9136-86.7328 120.064 120.064-202.8032 202.8032c-0.6656 0.6144-1.4848 0.8704-2.1504 1.4336-17.2032 15.0528-44.9536 14.7968-61.2864-1.4336l-277.4528-277.504z m618.3424 0.0512l-37.9904 37.9904L663.04 425.984l-0.3584-0.3584-14.848-14.848-0.0512 0.0512-23.6544-23.4496L501.76 510.8736a53.6576 53.6576 0 0 1-75.776 0 53.6576 53.6576 0 0 1 0.1024-75.8784l95.6416-96.512 0.1536 0.1536 64.8192-64.8192a166.0416 166.0416 0 0 1 234.5472 0 165.9904 165.9904 0 0 1 0 234.4448z" p-id="21613" fill="#2c2c2c"></path></svg>