<?xml version="1.0" standalone="no"?><!DOCTYPE svg PUBLIC "-//W3C//DTD SVG 1.1//EN" "http://www.w3.org/Graphics/SVG/1.1/DTD/svg11.dtd"><svg t="1686135858127" class="icon" viewBox="0 0 1024 1024" version="1.1" xmlns="http://www.w3.org/2000/svg" p-id="16265" xmlns:xlink="http://www.w3.org/1999/xlink" width="200" height="200"><path d="M655.8 409.4L346.1 584.9c-12.9 7.3-29.4 2.7-36.6-10.2L217 411.4c-7.3-12.9-2.7-29.4 10.2-36.6l309.6-175.4c12.9-7.3 29.4-2.7 36.6 10.2L666 372.8c7.2 12.9 2.7 29.4-10.2 36.6z" fill="#AFC184" p-id="16266"></path><path d="M333 595.4c-11.8 0-23.3-6.2-29.6-17.2l-92.5-163.3c-9.2-16.3-3.5-37.1 12.8-46.3l309.6-175.4c7.9-4.4 17-5.5 25.8-3.1s16 8.1 20.5 15.9l92.5 163.3c9.2 16.3 3.5 37.1-12.8 46.3L349.7 590.9c-5.3 3.1-11.1 4.5-16.7 4.5z m216.9-392.5c-3.4 0-6.7 0.9-9.6 2.6L230.7 380.9c-9.5 5.4-12.9 17.5-7.5 27l92.5 163.3c5.4 9.5 17.5 12.9 27 7.5l309.6-175.4c9.5-5.4 12.9-17.5 7.5-27l-92.5-163.3c-2.6-4.6-6.8-7.9-11.9-9.3-1.9-0.5-3.6-0.8-5.5-0.8z" fill="#592900" p-id="16267"></path><path d="M334.7 367.7l-6.9-12.3L534 238.7c7.4-4.2 16.9-2 21.5 5.3l36.2 62.7-12.3 7-36-62.4c-0.4-0.7-1.5-0.9-2.4-0.4L334.7 367.7z" fill="#592900" p-id="16268"></path><path d="M758.9 492L361.2 629.1c-14 4.8-29.4-2.7-34.2-16.7l-73.6-213.5c-4.8-14 2.7-29.4 16.7-34.2l397.7-137c14-4.8 29.4 2.7 34.2 16.7l73.5 213.4c4.8 14-2.6 29.4-16.6 34.2z" fill="#D3DDAB" p-id="16269"></path><path d="M352.4 637.6c-5.1 0-10.2-1.2-14.9-3.5-8.1-4-14.3-10.8-17.2-19.4l-73.6-213.5c-6.1-17.7 3.4-37.1 21-43.2l397.7-137c17.7-6.1 37.1 3.4 43.2 21l73.6 213.5c2.9 8.6 2.4 17.8-1.6 25.9-4 8.1-10.8 14.3-19.4 17.2l-397.7 137c-3.6 1.4-7.3 2-11.1 2z m324.1-404.3c-2.2 0-4.3 0.3-6.4 1.1l-397.7 137c-10.3 3.6-15.8 14.9-12.3 25.2L333.7 610.1c1.7 5 5.3 9 10.1 11.3 4.8 2.3 10.2 2.7 15.1 1l397.7-137c10.3-3.6 15.8-14.9 12.3-25.2l-73.6-213.5c-1.7-5-5.3-9-10.1-11.3-2.9-1.5-5.8-2.1-8.7-2.1z" fill="#592900" p-id="16270"></path><path d="M397.7 376.9l-4.6-13.3 259.6-89.3c8.8-3 18.4 1.3 21.9 10l28 79-13.3 4.8-27.9-78.7c-0.5-1.4-2.4-2.3-4.1-1.6l-259.6 89.1z" fill="#592900" p-id="16271"></path><path d="M742.1 821H247.4c-22 0-40-18-40-40V401.3c0-22 18-40 40-40h494.7c22 0 40 18 40 40v379.7c0 22-18 40-40 40z" fill="#F39800" p-id="16272"></path><path d="M782.1 415.8v-34l-24.5-24.5h-522l-28.3 29.3V788.1l32 32.2h510.9l31.4-31.4V766.1H281.9c-11.9 0-21.6-9.6-21.6-21.6V437.4c0-11.9 9.6-21.6 21.6-21.6h500.2z" fill="#A56913" p-id="16273"></path><path d="M742.1 835.2H247.4c-29.8 0-54.2-24.3-54.2-54.2V401.3c0-29.8 24.3-54.2 54.2-54.2h494.7c29.8 0 54.2 24.3 54.2 54.2v379.7c0 29.9-24.4 54.2-54.2 54.2zM247.4 375.4c-14.3 0-25.9 11.6-25.9 25.9v379.7c0 14.3 11.6 25.9 25.9 25.9h494.7c14.3 0 25.9-11.6 25.9-25.9V401.3c0-14.3-11.6-25.9-25.9-25.9H247.4z" fill="#592900" p-id="16274"></path><path d="M796.4 684.8H668.7c-38.8 0-70.5-31.8-70.5-70.5 0-38.8 31.8-70.5 70.5-70.5h118.4c5.2 0 9.4 4.2 9.4 9.4v131.5h-0.1z" fill="#A56913" p-id="16275"></path><path d="M807.2 655.8H673.5c-38.8 0-70.5-31.8-70.5-70.5 0-38.8 31.8-70.5 70.5-70.5h133.7c5.2 0 9.4 4.2 9.4 9.4v122.1c0.1 5.2-4.2 9.5-9.4 9.5z" fill="#A56913" p-id="16276"></path><path d="M771.9 514.8h44.8v140.9h-44.8z" fill="#BF7B21" p-id="16277"></path><path d="M789 669.9H673.5c-46.6 0-84.7-37.9-84.7-84.6s37.9-84.7 84.7-84.7h115.6c23 0 41.7 18.8 41.7 41.7V628.1c-0.1 23.1-18.7 41.8-41.8 41.8z m-115.5-141c-31.1 0-56.4 25.3-56.4 56.4s25.3 56.4 56.4 56.4h115.6c7.5 0 13.4-6.1 13.4-13.4v-85.8c0-7.5-6.1-13.4-13.4-13.4H673.5v-0.2z" fill="#592900" p-id="16278"></path><path d="M680.7 585.3m-29.1 0a29.1 29.1 0 1 0 58.2 0 29.1 29.1 0 1 0-58.2 0Z" fill="#FFCE88" p-id="16279"></path><path d="M680.7 621.4c-19.9 0-36.2-16.3-36.2-36.2 0-19.9 16.3-36.2 36.2-36.2 19.9 0 36.2 16.3 36.2 36.2 0 20-16.3 36.2-36.2 36.2z m0-58.2c-12.1 0-22 9.9-22 22s9.9 22 22 22 22-9.9 22-22c0-12.2-9.9-22-22-22z" fill="#592900" p-id="16280"></path><path d="M771.9 420.5h-9.4c-2.6 0-4.7-2.1-4.7-4.7s2.1-4.7 4.7-4.7h9.4c2.6 0 4.7 2.1 4.7 4.7-0.1 2.6-2.1 4.7-4.7 4.7zM734.3 770.7h-18.8c-2.6 0-4.7-2.1-4.7-4.7s2.1-4.7 4.7-4.7h18.8c2.6 0 4.7 2.1 4.7 4.7-0.1 2.6-2.1 4.7-4.7 4.7z m-47 0h-18.8c-2.6 0-4.7-2.1-4.7-4.7s2.1-4.7 4.7-4.7h18.8c2.6 0 4.7 2.1 4.7 4.7s-2.1 4.7-4.7 4.7z m-46.8 0h-18.8c-2.6 0-4.7-2.1-4.7-4.7s2.1-4.7 4.7-4.7h18.8c2.6 0 4.7 2.1 4.7 4.7-0.1 2.6-2.1 4.7-4.7 4.7z m-47 0h-18.8c-2.6 0-4.7-2.1-4.7-4.7s2.1-4.7 4.7-4.7h18.8c2.6 0 4.7 2.1 4.7 4.7s-2.1 4.7-4.7 4.7z m-46.8 0h-18.8c-2.6 0-4.7-2.1-4.7-4.7s2.1-4.7 4.7-4.7h18.8c2.6 0 4.7 2.1 4.7 4.7s-2.1 4.7-4.7 4.7z m-47 0H481c-2.6 0-4.7-2.1-4.7-4.7s2.1-4.7 4.7-4.7h18.8c2.6 0 4.7 2.1 4.7 4.7-0.1 2.6-2.1 4.7-4.8 4.7z m-46.8 0h-18.8c-2.6 0-4.7-2.1-4.7-4.7s2.1-4.7 4.7-4.7h18.8c2.6 0 4.7 2.1 4.7 4.7s-2.1 4.7-4.7 4.7z m-46.9 0h-18.8c-2.6 0-4.7-2.1-4.7-4.7s2.1-4.7 4.7-4.7H406c2.6 0 4.7 2.1 4.7 4.7-0.1 2.6-2.1 4.7-4.7 4.7z m-46.9 0h-18.8c-2.6 0-4.7-2.1-4.7-4.7s2.1-4.7 4.7-4.7h18.8c2.6 0 4.7 2.1 4.7 4.7s-2.1 4.7-4.7 4.7z m-46.8 0h-18.8c-2.6 0-4.7-2.1-4.7-4.7s2.1-4.7 4.7-4.7h18.8c2.6 0 4.7 2.1 4.7 4.7s-2.1 4.7-4.7 4.7z m-46.2-3.5c-1.1 0-2.1-0.3-2.9-1.1-4.8-3.9-7.6-9.6-7.6-15.7v-4.9c0-2.6 2.1-4.7 4.7-4.7s4.7 2.1 4.7 4.7v4.9c0 3.3 1.5 6.4 4 8.5 2.1 1.6 2.4 4.6 0.8 6.6-0.9 1.2-2.3 1.7-3.7 1.7z m-5.7-45.1c-2.6 0-4.7-2.1-4.7-4.7v-18.8c0-2.6 2.1-4.7 4.7-4.7s4.7 2.1 4.7 4.7v18.8c-0.1 2.7-2.1 4.7-4.7 4.7z m0-46.8c-2.6 0-4.7-2.1-4.7-4.7v-18.8c0-2.6 2.1-4.7 4.7-4.7s4.7 2.1 4.7 4.7v18.8c-0.1 2.5-2.1 4.7-4.7 4.7z m0-47c-2.6 0-4.7-2.1-4.7-4.7v-18.8c0-2.6 2.1-4.7 4.7-4.7s4.7 2.1 4.7 4.7v18.8c-0.1 2.7-2.1 4.7-4.7 4.7z m0-46.8c-2.6 0-4.7-2.1-4.7-4.7V558.1c0-2.6 2.1-4.7 4.7-4.7s4.7 2.1 4.7 4.7v18.8c-0.1 2.4-2.1 4.6-4.7 4.6z m0-46.9c-2.6 0-4.7-2.1-4.7-4.7V511.1c0-2.6 2.1-4.7 4.7-4.7s4.7 2.1 4.7 4.7v18.8c-0.1 2.6-2.1 4.7-4.7 4.7z m0-46.9c-2.6 0-4.7-2.1-4.7-4.7v-18.8c0-2.6 2.1-4.7 4.7-4.7s4.7 2.1 4.7 4.7V483.1c-0.1 2.5-2.1 4.6-4.7 4.6z m0-46.9c-2.6 0-4.7-2.1-4.7-4.7v-4.8c0-6.2 2.8-11.9 7.6-15.8 2.1-1.6 5-1.3 6.6 0.8 1.6 2.1 1.3 5-0.8 6.6-2.6 2.1-4.1 5.1-4.1 8.5v4.8c0 2.5-2 4.6-4.6 4.6z m474-20.3h-18.8c-2.6 0-4.7-2.1-4.7-4.7s2.1-4.7 4.7-4.7h18.8c2.6 0 4.7 2.1 4.7 4.7-0.1 2.6-2.1 4.7-4.7 4.7z m-47 0h-18.8c-2.6 0-4.7-2.1-4.7-4.7s2.1-4.7 4.7-4.7h18.8c2.6 0 4.7 2.1 4.7 4.7s-2.1 4.7-4.7 4.7z m-46.8 0h-18.8c-2.6 0-4.7-2.1-4.7-4.7s2.1-4.7 4.7-4.7h18.8c2.6 0 4.7 2.1 4.7 4.7-0.1 2.6-2.1 4.7-4.7 4.7z m-47 0h-18.8c-2.6 0-4.7-2.1-4.7-4.7s2.1-4.7 4.7-4.7h18.8c2.6 0 4.7 2.1 4.7 4.7s-2.1 4.7-4.7 4.7z m-46.8 0H528c-2.6 0-4.7-2.1-4.7-4.7s2.1-4.7 4.7-4.7h18.8c2.6 0 4.7 2.1 4.7 4.7s-2.1 4.7-4.7 4.7z m-46.9 0h-18.8c-2.6 0-4.7-2.1-4.7-4.7s2.1-4.7 4.7-4.7h18.8c2.6 0 4.7 2.1 4.7 4.7-0.1 2.6-2.1 4.7-4.7 4.7z m-46.9 0h-18.8c-2.6 0-4.7-2.1-4.7-4.7s2.1-4.7 4.7-4.7H453c2.6 0 4.7 2.1 4.7 4.7s-2.1 4.7-4.7 4.7z m-46.9 0h-18.8c-2.6 0-4.7-2.1-4.7-4.7s2.1-4.7 4.7-4.7h18.8c2.6 0 4.7 2.1 4.7 4.7-0.1 2.6-2.1 4.7-4.7 4.7z m-46.9 0h-18.8c-2.6 0-4.7-2.1-4.7-4.7s2.1-4.7 4.7-4.7h18.8c2.6 0 4.7 2.1 4.7 4.7s-2.1 4.7-4.7 4.7z m-46.9 0h-18.8c-2.6 0-4.7-2.1-4.7-4.7s2.1-4.7 4.7-4.7h18.8c2.6 0 4.7 2.1 4.7 4.7s-2.1 4.7-4.7 4.7zM771.9 770.7h-9.4c-2.6 0-4.7-2.1-4.7-4.7s2.1-4.7 4.7-4.7h9.4c2.6 0 4.7 2.1 4.7 4.7-0.1 2.6-2.1 4.7-4.7 4.7z" fill="#592900" p-id="16281"></path></svg>