<?xml version="1.0" standalone="no"?><!DOCTYPE svg PUBLIC "-//W3C//DTD SVG 1.1//EN" "http://www.w3.org/Graphics/SVG/1.1/DTD/svg11.dtd"><svg t="1686136031638" class="icon" viewBox="0 0 1024 1024" version="1.1" xmlns="http://www.w3.org/2000/svg" p-id="17457" xmlns:xlink="http://www.w3.org/1999/xlink" width="200" height="200"><path d="M512 1024C230.4 1024 0 793.6 0 512S230.4 0 512 0s512 230.4 512 512-230.4 512-512 512z" fill="#F7BE15" p-id="17458"></path><path d="M531.904 284.8l-36.56 10.992s-51.04-32.432-57.888 22.832c-3.048 24.6 21.696 24.44 21.328 33.824-1.336 33.952-20.312 38.952-20.312 38.952s-95.456 0-107.64 8.2c-12.184 8.2 8.12 33.824 8.12 33.824l-74.136 68.672s-20.312 26.176-58.904 96.344c-8.744 15.904-4.024 50.96 22.584 86.504 123.984 165.704 221.12 292.88 255.912 338.288 9.144 0.488 18.336 0.768 27.592 0.768 281.6 0 512-230.4 512-512 0-32.728-3.24-64.728-9.184-95.792L531.904 284.8z" fill="#DB8E1F" p-id="17459"></path><path d="M771.408 588.904c-4.898-10.076-40.686-81.736-86.34-124.306-19.322-17.262-40.312-29.166-61.476-29.166H359.816c-73.896 0.008-145.624 144.848-151.624 157.232 0.016 1.944 0.096 3.872 0.204 5.796 6.032 66.01 66.328 118.036 139.62 118.036h283.24c76.8 0 139.376-57.112 140.152-127.592z m-202.08-4.92c-16.616 31.52-70.672 54.912-77.248 57.656a5.92 5.92 0 0 1-3.8 0.64 5.502 5.502 0 0 1-1.512-0.432 5.19 5.19 0 0 1-0.592-0.304c-5.384-2.376-35.24-16.024-56.12-35.72a5.898 5.898 0 0 1-0.24-8.328c0.358-0.376 0.764-0.674 1.186-0.934l-13.524-21.718a5.802 5.802 0 0 1-0.926 0.484 5.928 5.928 0 0 1-7.656-3.288c-7.92-19.832 0.664-43.824 19.952-55.808 15.552-9.656 39.944-11.2 63.344 11.84 20.952-17.048 43.616-19.208 61.472-5.504 18.864 14.488 25.888 42.04 15.664 61.416z m101.296-97.32a4.118 4.118 0 0 1-5.824 0.192c-19.808-18.576-39.96-28.08-59.872-28.248-2.28-0.016-4.104-1.88-4.088-4.152s2.2-4.072 4.152-4.088c22.064 0.184 44.08 10.44 65.44 30.472a4.12 4.12 0 0 1 0.192 5.824z m50.336 69.232a4.118 4.118 0 0 1-5.632-1.504c-9.144-15.864-17.96-29.288-26.96-41.064a4.122 4.122 0 0 1 0.784-5.776 4.116 4.116 0 0 1 5.776 0.776c9.208 12.056 18.224 25.776 27.544 41.936a4.12 4.12 0 0 1-1.512 5.632z m7.632 13.928c1.992-1.032 4.512-0.28 5.56 1.736a984.73 984.73 0 0 1 9.336 18.264 4.112 4.112 0 0 1-1.84 5.52c-0.592 0.304-1.216 0.44-1.84 0.44-1.512 0-2.96-0.84-3.688-2.28a970.166 970.166 0 0 0-9.264-18.112 4.128 4.128 0 0 1 1.736-5.568z" fill="#EA5559" p-id="17460"></path><path d="M499.04 351.408c-0.606-0.146-1.198-0.328-1.79-0.506 1.07 3.698 1.984 7.06 2.798 10.082 3.468 12.876 5.21 19.27 12.342 26.048h13.858c-5.318-4.524-10.082-11.496-12.88-22.2-1.402-5.338-2.204-8.376-3.472-12.594a34.704 34.704 0 0 1-10.856-0.83zM443.478 342.046c7.104-22.242 16.032-39.046 31.146-39.046h0.04c-5.1-9.666-15.99-14.144-28.2-11.208-14.104 3.384-23 17.576-19.848 31.616a25.44 25.44 0 0 0 16.862 18.638z" fill="#F7BE15" p-id="17461"></path><path d="M645.44 421.24a9.69 9.69 0 0 0 9.688-9.68v-3.048a9.696 9.696 0 0 0-9.688-9.688H333.816a9.696 9.696 0 0 0-9.688 9.688v3.048a9.69 9.69 0 0 0 9.688 9.68H645.44zM426.246 391.98l16.852 0.46a4.118 4.118 0 0 1 1.424-3.024c8.672-7.432 10.384-13.776 14.152-27.688 1.28-4.744 2.768-10.24 4.8-16.768 4.976-15.904 14.416-13.632 18.976-12.552 0.576 0.128 1.136 0.264 1.664 0.36 0.984 0.168 1.864 0.688 2.488 1.456 3.8 4.648 8.768 7.816 14.36 9.16 6.824 1.632 13.84 0.528 19.752-3.144 5.832-3.632 9.88-9.352 11.4-16.088 3.152-14.04-5.752-28.208-19.856-31.6-12.8-3.088-25.776 3.928-30.152 16.304a4.092 4.092 0 0 1-4.688 2.664c-12.352-2.432-21.272 12.744-32.072 54.088-3.854 14.782-11.46 22.456-19.1 26.372z m85.322-94.684c8.52 5.904 12.52 15.752 10.504 25.928-1.04 5.248-9.04 3.016-8.008-2.208 1.248-6.312-1.408-12.888-6.696-16.552-4.376-3.024-0.216-10.224 4.2-7.168z" fill="#DD9D00" p-id="17462"></path><path d="M438.136 597.256c17.8 16.8 43.592 29.304 51.152 32.768 10.2-4.424 55.904-25.512 69.632-51.528 7.544-14.304 1.848-35.64-12.424-46.584-14.376-11.048-32.848-7.904-50.68 8.6-1.152 1.08-2.552 1.584-4.28 1.568a5.894 5.894 0 0 1-4.104-1.944c-16.744-18.656-36.312-23.856-52.368-13.896-14.28 8.864-20.968 27.064-15.224 41.432a5.882 5.882 0 0 1-2.364 7.172l13.524 21.718c2.222-1.374 5.16-1.174 7.136 0.694z" fill="#BD2130" p-id="17463"></path><path d="M553.664 522.568c-17.856-13.704-40.52-11.544-61.472 5.504-23.4-23.04-47.792-21.496-63.344-11.84-19.288 11.984-27.872 35.976-19.952 55.808a5.928 5.928 0 0 0 7.656 3.288c0.33-0.132 0.634-0.302 0.926-0.484a5.882 5.882 0 0 0 2.364-7.172c-5.744-14.368 0.944-32.568 15.224-41.432 16.056-9.96 35.624-4.76 52.368 13.896a5.894 5.894 0 0 0 4.104 1.944c1.728 0.016 3.128-0.488 4.28-1.568 17.832-16.504 36.304-19.648 50.68-8.6 14.272 10.944 19.968 32.28 12.424 46.584-13.728 26.016-59.432 47.104-69.632 51.528-7.56-3.464-33.352-15.968-51.152-32.768-1.976-1.868-4.914-2.068-7.134-0.694a5.906 5.906 0 0 0-1.186 0.934 5.898 5.898 0 0 0 0.24 8.328c20.88 19.696 50.736 33.344 56.12 35.72 0.2 0.12 0.392 0.216 0.592 0.304 0.496 0.224 1 0.36 1.512 0.432a5.92 5.92 0 0 0 3.8-0.64c6.576-2.744 60.632-26.136 77.248-57.656 10.222-19.376 3.198-46.928-15.666-61.416zM604.992 450.368c-1.952 0.016-4.136 1.816-4.152 4.088s1.808 4.136 4.088 4.152c19.912 0.168 40.064 9.672 59.872 28.248a4.118 4.118 0 0 0 5.632-6.016c-21.36-20.032-43.376-30.288-65.44-30.472zM694.928 508.328a4.116 4.116 0 0 0-5.776-0.776 4.122 4.122 0 0 0-0.784 5.776c9 11.776 17.816 25.2 26.96 41.064a4.118 4.118 0 0 0 5.632 1.504 4.12 4.12 0 0 0 1.512-5.632c-9.32-16.16-18.336-29.88-27.544-41.936zM739.808 595.784c0.624 0 1.248-0.136 1.84-0.44a4.112 4.112 0 0 0 1.84-5.52c-2.84-5.688-5.96-11.84-9.336-18.264-1.048-2.016-3.568-2.768-5.56-1.736a4.128 4.128 0 0 0-1.736 5.568c3.36 6.376 6.44 12.472 9.264 18.112a4.134 4.134 0 0 0 3.688 2.28zM507.368 304.464c5.288 3.664 7.944 10.24 6.696 16.552-1.032 5.224 6.968 7.456 8.008 2.208 2.016-10.176-1.984-20.024-10.504-25.928-4.416-3.056-8.576 4.144-4.2 7.168z" fill="#474341" p-id="17464"></path><path d="M783.12 589.91c0.014-0.782 0.064-1.556 0.064-2.342 0-0.872-0.192-1.72-0.56-2.504-2.696-5.734-58.082-122.016-126.196-155.108 6.264-3.754 10.476-10.59 10.476-18.404v-3.048c0-11.84-9.624-21.472-21.464-21.472h-89.714a4.03 4.03 0 0 0-2.774-0.432c-0.968 0.168-24.24 4.368-31.616-23.864-1.35-5.15-2.16-8.21-3.334-12.178a34.06 34.06 0 0 0 7.07-3.31c7.72-4.8 13.072-12.36 15.088-21.272 4.128-18.4-7.52-36.984-25.968-41.424-13.028-3.104-26.142 1.648-34.152 11.438-7.432-10.752-20.978-15.704-35.504-12.214-18.456 4.44-30.096 23.024-25.968 41.432a33.644 33.644 0 0 0 22.52 24.72 555.8 555.8 0 0 0-3.712 13.598c-4.286 16.402-13.932 21.848-21.454 23.504h-82.106c-11.84 0-21.464 9.632-21.464 21.472v3.048c0 7.816 4.212 14.65 10.476 18.404-68.114 33.092-123.5 149.374-126.196 155.108-0.368 0.784-0.56 1.632-0.56 2.504 0 40.26 18.382 76.596 47.748 102.268a148.176 148.176 0 0 0 14.086 11.484l-0.004 0.004a153.416 153.416 0 0 0 6.988 4.766l0.004-0.004c24.228 15.496 53.576 24.602 85.192 24.602h57.934l-0.008 0.008h11.928l0.008-0.008h213.378c82.824 0 150.208-62.344 150.208-138.968l-0.4-1.776-0.014-0.032zM333.816 421.24a9.69 9.69 0 0 1-9.688-9.68v-3.048a9.696 9.696 0 0 1 9.688-9.688H645.44a9.696 9.696 0 0 1 9.688 9.688v3.048a9.69 9.69 0 0 1-9.688 9.68H333.816z m112.648-129.448c12.21-2.936 23.1 1.544 28.2 11.208h-0.04c-15.114 0-24.042 16.802-31.146 39.046a25.438 25.438 0 0 1-16.862-18.638c-3.152-14.04 5.744-28.232 19.848-31.616z m-1.12 73.816c10.8-41.344 19.72-56.52 32.072-54.088a4.092 4.092 0 0 0 4.688-2.664c4.376-12.376 17.352-19.392 30.152-16.304 14.104 3.392 23.008 17.56 19.856 31.6-1.52 6.736-5.568 12.456-11.4 16.088-5.912 3.672-12.928 4.776-19.752 3.144-5.592-1.344-10.56-4.512-14.36-9.16a4.09 4.09 0 0 0-2.488-1.456c-0.528-0.096-1.088-0.232-1.664-0.36-4.56-1.08-14-3.352-18.976 12.552-2.032 6.528-3.52 12.024-4.8 16.768-3.768 13.912-5.48 20.256-14.152 27.688-0.92 0.792-1.392 1.9-1.424 3.024l-16.852-0.46c7.642-3.916 15.248-11.59 19.1-26.372z m80.904 21.424h-13.858c-7.132-6.778-8.874-13.172-12.342-26.048a552.26 552.26 0 0 0-2.798-10.082c0.594 0.178 1.186 0.36 1.79 0.506 3.622 0.864 7.274 1.118 10.856 0.83 1.268 4.218 2.072 7.256 3.472 12.594 2.796 10.704 7.562 17.676 12.88 22.2z m-39.01-41.006c0.032 0.212 0.064 0.426 0.13 0.638 2 6.416 3.464 11.808 4.72 16.464 2.72 10.066 4.69 17.296 9.41 23.904h-43.71c4.328-6.402 6.238-13.46 8.852-23.144 1.256-4.656 2.712-10.056 4.72-16.456 2.672-8.536 5-8 9.192-7 0.216 0.056 0.432 0.112 0.648 0.16a35.656 35.656 0 0 0 6.038 5.434z m-139.222 370.47c-73.294 0-133.588-52.026-139.62-118.036a123.606 123.606 0 0 1-0.204-5.796c6-12.384 77.728-157.224 151.624-157.232h263.776c21.164 0 42.154 11.904 61.476 29.166 45.654 42.568 81.442 114.23 86.34 124.306-0.776 70.48-63.352 127.592-140.152 127.592h-283.24z" fill="#474341" p-id="17465"></path></svg>